<svg xmlns="http://www.w3.org/2000/svg" xmlns:xlink="http://www.w3.org/1999/xlink" width="100" zoomAndPan="magnify" viewBox="0 0 375 374.999991" height="100" preserveAspectRatio="xMidYMid meet" version="1.0"><defs><g/><clipPath id="d813041956"><path d="M 173 181 L 209 181 L 209 217 L 173 217 Z M 173 181 " clip-rule="nonzero"/></clipPath><clipPath id="b9d5c123ab"><path d="M 194.683594 181.503906 L 208.03125 194.070312 L 187.125 216.273438 L 173.777344 203.707031 Z M 194.683594 181.503906 " clip-rule="nonzero"/></clipPath><clipPath id="970b194ec1"><path d="M 192.988281 146.730469 L 243.507812 146.730469 L 243.507812 197.246094 L 192.988281 197.246094 Z M 192.988281 146.730469 " clip-rule="nonzero"/></clipPath><clipPath id="db31fea19c"><path d="M 218.246094 146.730469 C 204.296875 146.730469 192.988281 158.039062 192.988281 171.988281 C 192.988281 185.9375 204.296875 197.246094 218.246094 197.246094 C 232.195312 197.246094 243.507812 185.9375 243.507812 171.988281 C 243.507812 158.039062 232.195312 146.730469 218.246094 146.730469 Z M 218.246094 146.730469 " clip-rule="nonzero"/></clipPath><clipPath id="ab739b42a7"><path d="M 175 159.242188 L 230.777344 159.242188 L 230.777344 215 L 175 215 Z M 175 159.242188 " clip-rule="nonzero"/></clipPath><clipPath id="40c6dc9591"><path d="M 56.15625 226.894531 L 320.246094 226.894531 L 320.246094 259.878906 L 56.15625 259.878906 Z M 56.15625 226.894531 " clip-rule="nonzero"/></clipPath></defs><g fill="#020202" fill-opacity="1"><g transform="translate(47.340458, 213.060438)"><g><path d="M 55.890625 -69.453125 C 52.847656 -71.097656 49.613281 -72.425781 46.1875 -73.4375 C 42.757812 -74.445312 39.523438 -74.953125 36.484375 -74.953125 C 31.878906 -74.953125 28.234375 -73.921875 25.546875 -71.859375 C 22.859375 -69.796875 21.515625 -66.96875 21.515625 -63.375 C 21.515625 -59.875 23.09375 -57.007812 26.25 -54.78125 C 29.40625 -52.5625 33.910156 -50.359375 39.765625 -48.171875 C 44.128906 -46.617188 47.8125 -44.925781 50.8125 -43.09375 C 53.8125 -41.257812 56.304688 -38.722656 58.296875 -35.484375 C 60.285156 -32.253906 61.28125 -28.144531 61.28125 -23.15625 C 61.28125 -18.632812 60.148438 -14.539062 57.890625 -10.875 C 55.628906 -7.207031 52.410156 -4.320312 48.234375 -2.21875 C 44.066406 -0.113281 39.175781 0.9375 33.5625 0.9375 C 28.332031 0.9375 23.300781 0.0976562 18.46875 -1.578125 C 13.632812 -3.253906 9.390625 -5.378906 5.734375 -7.953125 L 10.765625 -16.953125 C 13.640625 -14.773438 17.101562 -12.925781 21.15625 -11.40625 C 25.21875 -9.882812 29.003906 -9.125 32.515625 -9.125 C 37.035156 -9.125 40.988281 -10.289062 44.375 -12.625 C 47.769531 -14.96875 49.46875 -18.4375 49.46875 -23.03125 C 49.46875 -26.9375 48.039062 -30.035156 45.1875 -32.328125 C 42.34375 -34.628906 38.347656 -36.796875 33.203125 -38.828125 C 28.453125 -40.617188 24.5 -42.367188 21.34375 -44.078125 C 18.1875 -45.796875 15.476562 -48.15625 13.21875 -51.15625 C 10.957031 -54.15625 9.828125 -57.914062 9.828125 -62.4375 C 9.828125 -69.070312 12.144531 -74.429688 16.78125 -78.515625 C 21.414062 -82.609375 27.4375 -84.773438 34.84375 -85.015625 C 43.96875 -85.015625 52.425781 -82.753906 60.21875 -78.234375 Z M 55.890625 -69.453125 "/></g></g></g><g fill="#020202" fill-opacity="1"><g transform="translate(106.861726, 213.060438)"><g><path d="M 34.84375 -84.546875 C 44.039062 -84.546875 51.234375 -82.242188 56.421875 -77.640625 C 61.609375 -73.046875 64.203125 -66.617188 64.203125 -58.359375 C 64.203125 -53.597656 63.242188 -49.148438 61.328125 -45.015625 C 59.421875 -40.890625 56.34375 -37.539062 52.09375 -34.96875 C 47.84375 -32.394531 42.484375 -31.109375 36.015625 -31.109375 L 23.5 -31.109375 L 23.5 0 L 12.15625 0 L 12.15625 -84.546875 Z M 36.015625 -42.09375 C 40.066406 -42.09375 43.359375 -42.953125 45.890625 -44.671875 C 48.429688 -46.390625 50.242188 -48.472656 51.328125 -50.921875 C 52.421875 -53.378906 52.96875 -55.78125 52.96875 -58.125 C 52.96875 -62.175781 51.640625 -65.78125 48.984375 -68.9375 C 46.335938 -72.09375 42.207031 -73.671875 36.59375 -73.671875 L 23.5 -73.671875 L 23.5 -42.09375 Z M 36.015625 -42.09375 "/></g></g></g><g fill="#020202" fill-opacity="1"><g transform="translate(167.903188, 213.060438)"><g><path d="M 6.90625 -42.21875 C 6.90625 -49.9375 8.851562 -57.109375 12.75 -63.734375 C 16.644531 -70.359375 21.882812 -75.640625 28.46875 -79.578125 C 35.0625 -83.515625 42.253906 -85.484375 50.046875 -85.484375 C 57.765625 -85.484375 64.9375 -83.515625 71.5625 -79.578125 C 78.1875 -75.640625 83.46875 -70.359375 87.40625 -63.734375 C 91.34375 -57.109375 93.3125 -49.9375 93.3125 -42.21875 C 93.3125 -34.414062 91.363281 -27.203125 87.46875 -20.578125 C 83.570312 -13.953125 78.289062 -8.707031 71.625 -4.84375 C 64.957031 -0.988281 57.765625 0.9375 50.046875 0.9375 C 42.253906 0.9375 35.039062 -0.972656 28.40625 -4.796875 C 21.78125 -8.617188 16.539062 -13.820312 12.6875 -20.40625 C 8.832031 -26.988281 6.90625 -34.257812 6.90625 -42.21875 Z M 18.59375 -42.09375 C 18.59375 -36.320312 19.992188 -30.976562 22.796875 -26.0625 C 25.609375 -21.15625 29.445312 -17.257812 34.3125 -14.375 C 39.1875 -11.5 44.507812 -10.0625 50.28125 -10.0625 C 56.050781 -10.0625 61.332031 -11.484375 66.125 -14.328125 C 70.914062 -17.171875 74.695312 -21.066406 77.46875 -26.015625 C 80.238281 -30.960938 81.625 -36.363281 81.625 -42.21875 C 81.625 -48.0625 80.21875 -53.476562 77.40625 -58.46875 C 74.601562 -63.457031 70.785156 -67.394531 65.953125 -70.28125 C 61.117188 -73.164062 55.816406 -74.609375 50.046875 -74.609375 C 44.273438 -74.609375 38.972656 -73.144531 34.140625 -70.21875 C 29.304688 -67.289062 25.503906 -63.332031 22.734375 -58.34375 C 19.972656 -53.363281 18.59375 -47.945312 18.59375 -42.09375 Z M 18.59375 -42.09375 "/></g></g></g><g fill="#020202" fill-opacity="1"><g transform="translate(259.582475, 213.060438)"><g><path d="M 62.09375 -84.546875 L 62.09375 -73.671875 L 39.40625 -73.671875 L 39.40625 0 L 28.0625 0 L 28.0625 -73.671875 L 5.96875 -73.671875 L 5.96875 -84.546875 Z M 62.09375 -84.546875 "/></g></g></g><g clip-path="url(#d813041956)"><g clip-path="url(#b9d5c123ab)"><path fill="#ffffff" d="M 194.683594 181.503906 L 208.03125 194.070312 L 187.117188 216.28125 L 173.769531 203.714844 Z M 194.683594 181.503906 " fill-opacity="1" fill-rule="nonzero"/></g></g><g clip-path="url(#970b194ec1)"><g clip-path="url(#db31fea19c)"><path fill="#8cc342" d="M 192.988281 146.730469 L 243.507812 146.730469 L 243.507812 197.246094 L 192.988281 197.246094 Z M 192.988281 146.730469 " fill-opacity="1" fill-rule="nonzero"/></g></g><g clip-path="url(#ab739b42a7)"><path fill="#000000" d="M 217.382812 186.550781 C 220.691406 183.242188 230.757812 172.304688 230.757812 172.304688 C 230.757812 172.304688 230.042969 171.214844 228.316406 169.226562 L 217.222656 180.316406 C 216.601562 180.9375 215.601562 180.9375 214.992188 180.320312 C 214.371094 179.703125 214.371094 178.703125 214.992188 178.082031 L 226.1875 166.890625 C 225.746094 166.421875 225.261719 165.933594 224.746094 165.410156 C 224.167969 164.835938 223.628906 164.320312 223.128906 163.835938 L 212.035156 174.929688 C 211.414062 175.546875 210.417969 175.546875 209.808594 174.929688 C 209.1875 174.3125 209.183594 173.316406 209.800781 172.699219 L 220.789062 161.714844 C 218.84375 160.027344 217.757812 159.296875 217.757812 159.296875 C 217.757812 159.296875 208.503906 167.605469 203.472656 172.636719 C 197.859375 178.246094 202.953125 183.414062 200.742188 185.621094 C 198.535156 187.824219 188.417969 196.023438 183.253906 201.191406 C 173.777344 210.660156 174.804688 212.136719 176.34375 213.671875 C 177.878906 215.21875 179.351562 216.238281 188.824219 206.765625 C 193.992188 201.597656 202.1875 191.488281 204.390625 189.28125 C 206.601562 187.070312 211.691406 192.238281 217.382812 186.550781 Z M 217.382812 186.550781 " fill-opacity="1" fill-rule="nonzero"/></g><g clip-path="url(#40c6dc9591)"><path fill="#8cc63f" d="M 56.15625 226.894531 L 320.304688 226.894531 L 320.304688 259.878906 L 56.15625 259.878906 Z M 56.15625 226.894531 " fill-opacity="1" fill-rule="nonzero"/></g><g fill="#8cc342" fill-opacity="0.4"><g transform="translate(77.223795, 250.623053)"><g><path d="M 11.203125 -5.046875 L 0 -5.046875 L 0 -6.453125 L 11.203125 -6.453125 Z M 11.203125 -5.046875 "/></g></g></g><g fill="#8cc342" fill-opacity="0.4"><g transform="translate(100.362266, 250.623053)"><g><path d="M 10.8125 -4.09375 C 10.8125 -3.4375 10.671875 -2.835938 10.390625 -2.296875 C 10.117188 -1.765625 9.753906 -1.304688 9.296875 -0.921875 C 8.847656 -0.535156 8.328125 -0.238281 7.734375 -0.03125 C 7.140625 0.175781 6.519531 0.28125 5.875 0.28125 C 5 0.28125 4.191406 0.117188 3.453125 -0.203125 C 2.710938 -0.535156 2.128906 -1.023438 1.703125 -1.671875 L 1.703125 0 L 0.296875 0 L 0.296875 -4.78125 L 1.703125 -4.78125 C 1.703125 -4.238281 1.820312 -3.742188 2.0625 -3.296875 C 2.3125 -2.859375 2.628906 -2.476562 3.015625 -2.15625 C 3.398438 -1.832031 3.84375 -1.578125 4.34375 -1.390625 C 4.84375 -1.210938 5.351562 -1.125 5.875 -1.125 C 6.34375 -1.125 6.769531 -1.191406 7.15625 -1.328125 C 7.550781 -1.460938 7.894531 -1.648438 8.1875 -1.890625 C 8.488281 -2.140625 8.722656 -2.4375 8.890625 -2.78125 C 9.066406 -3.132812 9.15625 -3.535156 9.15625 -3.984375 C 9.15625 -4.492188 9.046875 -4.925781 8.828125 -5.28125 C 8.609375 -5.644531 8.3125 -5.953125 7.9375 -6.203125 C 7.5625 -6.460938 7.140625 -6.679688 6.671875 -6.859375 C 6.210938 -7.046875 5.742188 -7.226562 5.265625 -7.40625 C 4.691406 -7.601562 4.117188 -7.8125 3.546875 -8.03125 C 2.984375 -8.257812 2.476562 -8.539062 2.03125 -8.875 C 1.582031 -9.207031 1.21875 -9.613281 0.9375 -10.09375 C 0.65625 -10.582031 0.515625 -11.191406 0.515625 -11.921875 C 0.515625 -12.554688 0.648438 -13.125 0.921875 -13.625 C 1.191406 -14.125 1.546875 -14.546875 1.984375 -14.890625 C 2.429688 -15.242188 2.945312 -15.507812 3.53125 -15.6875 C 4.113281 -15.863281 4.71875 -15.953125 5.34375 -15.953125 C 6.101562 -15.953125 6.804688 -15.796875 7.453125 -15.484375 C 8.097656 -15.171875 8.597656 -14.695312 8.953125 -14.0625 L 8.953125 -15.6875 L 10.40625 -15.6875 L 10.40625 -11.203125 L 8.953125 -11.203125 C 8.953125 -11.679688 8.851562 -12.125 8.65625 -12.53125 C 8.46875 -12.945312 8.203125 -13.300781 7.859375 -13.59375 C 7.523438 -13.882812 7.140625 -14.113281 6.703125 -14.28125 C 6.273438 -14.457031 5.820312 -14.546875 5.34375 -14.546875 C 4.914062 -14.546875 4.507812 -14.5 4.125 -14.40625 C 3.738281 -14.3125 3.398438 -14.15625 3.109375 -13.9375 C 2.828125 -13.726562 2.597656 -13.453125 2.421875 -13.109375 C 2.253906 -12.773438 2.171875 -12.378906 2.171875 -11.921875 C 2.171875 -11.503906 2.269531 -11.148438 2.46875 -10.859375 C 2.675781 -10.578125 2.953125 -10.328125 3.296875 -10.109375 C 3.640625 -9.890625 4.035156 -9.6875 4.484375 -9.5 C 4.941406 -9.320312 5.40625 -9.140625 5.875 -8.953125 C 6.46875 -8.742188 7.054688 -8.507812 7.640625 -8.25 C 8.234375 -8 8.757812 -7.691406 9.21875 -7.328125 C 9.6875 -6.972656 10.066406 -6.53125 10.359375 -6 C 10.660156 -5.476562 10.8125 -4.84375 10.8125 -4.09375 Z M 10.8125 -4.09375 "/></g></g></g><g fill="#8cc342" fill-opacity="0.4"><g transform="translate(123.500737, 250.623053)"><g><path d="M 11.625 -7.828125 C 11.625 -6.773438 11.515625 -5.757812 11.296875 -4.78125 C 11.085938 -3.800781 10.742188 -2.9375 10.265625 -2.1875 C 9.796875 -1.445312 9.175781 -0.847656 8.40625 -0.390625 C 7.644531 0.0546875 6.710938 0.28125 5.609375 0.28125 C 4.515625 0.28125 3.582031 0.0546875 2.8125 -0.390625 C 2.050781 -0.847656 1.429688 -1.445312 0.953125 -2.1875 C 0.472656 -2.9375 0.128906 -3.800781 -0.078125 -4.78125 C -0.285156 -5.757812 -0.390625 -6.773438 -0.390625 -7.828125 C -0.390625 -8.878906 -0.285156 -9.894531 -0.078125 -10.875 C 0.128906 -11.851562 0.476562 -12.71875 0.96875 -13.46875 C 1.457031 -14.21875 2.082031 -14.816406 2.84375 -15.265625 C 3.601562 -15.722656 4.523438 -15.953125 5.609375 -15.953125 C 6.691406 -15.953125 7.613281 -15.722656 8.375 -15.265625 C 9.144531 -14.816406 9.765625 -14.21875 10.234375 -13.46875 C 10.710938 -12.71875 11.0625 -11.851562 11.28125 -10.875 C 11.507812 -9.894531 11.625 -8.878906 11.625 -7.828125 Z M 9.96875 -7.828125 C 9.96875 -8.859375 9.867188 -9.789062 9.671875 -10.625 C 9.472656 -11.457031 9.1875 -12.164062 8.8125 -12.75 C 8.445312 -13.332031 7.992188 -13.773438 7.453125 -14.078125 C 6.921875 -14.390625 6.304688 -14.546875 5.609375 -14.546875 C 4.753906 -14.546875 4.046875 -14.34375 3.484375 -13.9375 C 2.929688 -13.539062 2.484375 -13.019531 2.140625 -12.375 C 1.804688 -11.726562 1.570312 -11.003906 1.4375 -10.203125 C 1.3125 -9.410156 1.25 -8.617188 1.25 -7.828125 C 1.25 -7.046875 1.3125 -6.253906 1.4375 -5.453125 C 1.570312 -4.648438 1.804688 -3.929688 2.140625 -3.296875 C 2.484375 -2.660156 2.929688 -2.140625 3.484375 -1.734375 C 4.046875 -1.328125 4.753906 -1.125 5.609375 -1.125 C 6.460938 -1.125 7.171875 -1.328125 7.734375 -1.734375 C 8.296875 -2.140625 8.742188 -2.660156 9.078125 -3.296875 C 9.410156 -3.929688 9.640625 -4.648438 9.765625 -5.453125 C 9.898438 -6.253906 9.96875 -7.046875 9.96875 -7.828125 Z M 9.96875 -7.828125 "/></g></g></g><g fill="#8cc342" fill-opacity="0.4"><g transform="translate(146.63921, 250.623053)"><g><path d="M 10.609375 -14.28125 L 2.234375 -14.28125 L 2.234375 -8.671875 L 8.421875 -8.671875 L 8.421875 -7.265625 L 2.234375 -7.265625 L 2.234375 0 L 0.59375 0 L 0.59375 -15.6875 L 10.609375 -15.6875 Z M 10.609375 -14.28125 "/></g></g></g><g fill="#8cc342" fill-opacity="0.4"><g transform="translate(169.777677, 250.623053)"><g><path d="M 11.203125 -10.390625 L 9.796875 -10.390625 L 9.796875 -14.28125 L 6.4375 -14.28125 L 6.4375 -1.40625 L 8.953125 -1.40625 L 8.953125 0 L 2.234375 0 L 2.234375 -1.40625 L 4.78125 -1.40625 L 4.78125 -14.28125 L 1.40625 -14.28125 L 1.40625 -10.390625 L 0 -10.390625 L 0 -15.6875 L 11.203125 -15.6875 Z M 11.203125 -10.390625 "/></g></g></g><g fill="#8cc342" fill-opacity="0.4"><g transform="translate(192.916145, 250.623053)"><g><path d="M 11.96875 -15.6875 L 9.140625 0 L 7.1875 0 L 5.59375 -7.65625 L 3.96875 0 L 2.046875 0 L -0.75 -15.6875 L 0.984375 -15.6875 L 3.203125 -2.78125 L 4.78125 -11.203125 L 6.390625 -11.203125 L 7.984375 -2.78125 L 10.203125 -15.6875 Z M 11.96875 -15.6875 "/></g></g></g><g fill="#8cc342" fill-opacity="0.4"><g transform="translate(216.054612, 250.623053)"><g><path d="M 11.96875 0 L 10.203125 0 L 8.71875 -4.484375 L 2.515625 -4.484375 L 1.0625 0 L -0.703125 0 L 4.515625 -15.6875 L 6.75 -15.6875 Z M 8.25 -5.9375 L 5.609375 -14.03125 L 2.984375 -5.9375 Z M 8.25 -5.9375 "/></g></g></g><g fill="#8cc342" fill-opacity="0.4"><g transform="translate(239.193079, 250.623053)"><g><path d="M 11.34375 0 L 9.265625 0 L 4.671875 -6.71875 L 2.234375 -6.71875 L 2.234375 0 L 0.59375 0 L 0.59375 -15.6875 L 5.765625 -15.6875 C 7.484375 -15.6875 8.816406 -15.3125 9.765625 -14.5625 C 10.710938 -13.8125 11.1875 -12.691406 11.1875 -11.203125 C 11.1875 -10.546875 11.066406 -9.953125 10.828125 -9.421875 C 10.597656 -8.898438 10.28125 -8.453125 9.875 -8.078125 C 9.476562 -7.710938 9 -7.414062 8.4375 -7.1875 C 7.882812 -6.96875 7.28125 -6.835938 6.625 -6.796875 Z M 9.46875 -11.203125 C 9.46875 -12.273438 9.132812 -13.054688 8.46875 -13.546875 C 7.8125 -14.035156 6.910156 -14.28125 5.765625 -14.28125 L 2.234375 -14.28125 L 2.234375 -8.125 L 5.765625 -8.125 C 6.910156 -8.125 7.8125 -8.363281 8.46875 -8.84375 C 9.132812 -9.332031 9.46875 -10.117188 9.46875 -11.203125 Z M 9.46875 -11.203125 "/></g></g></g><g fill="#8cc342" fill-opacity="0.4"><g transform="translate(262.331547, 250.623053)"><g><path d="M 10.609375 0 L 0.59375 0 L 0.59375 -15.6875 L 10.609375 -15.6875 L 10.609375 -14.28125 L 2.234375 -14.28125 L 2.234375 -8.671875 L 8.421875 -8.671875 L 8.421875 -7.265625 L 2.234375 -7.265625 L 2.234375 -1.40625 L 10.609375 -1.40625 Z M 10.609375 0 "/></g></g></g><g fill="#8cc342" fill-opacity="0.4"><g transform="translate(285.470014, 250.623053)"><g><path d="M 11.203125 -5.046875 L 0 -5.046875 L 0 -6.453125 L 11.203125 -6.453125 Z M 11.203125 -5.046875 "/></g></g></g><g fill="#ffffff" fill-opacity="1"><g transform="translate(77.223795, 250.623053)"><g><path d="M 11.203125 -5.046875 L 0 -5.046875 L 0 -6.453125 L 11.203125 -6.453125 Z M 11.203125 -5.046875 "/></g></g></g><g fill="#ffffff" fill-opacity="1"><g transform="translate(100.362266, 250.623053)"><g><path d="M 10.8125 -4.09375 C 10.8125 -3.4375 10.671875 -2.835938 10.390625 -2.296875 C 10.117188 -1.765625 9.753906 -1.304688 9.296875 -0.921875 C 8.847656 -0.535156 8.328125 -0.238281 7.734375 -0.03125 C 7.140625 0.175781 6.519531 0.28125 5.875 0.28125 C 5 0.28125 4.191406 0.117188 3.453125 -0.203125 C 2.710938 -0.535156 2.128906 -1.023438 1.703125 -1.671875 L 1.703125 0 L 0.296875 0 L 0.296875 -4.78125 L 1.703125 -4.78125 C 1.703125 -4.238281 1.820312 -3.742188 2.0625 -3.296875 C 2.3125 -2.859375 2.628906 -2.476562 3.015625 -2.15625 C 3.398438 -1.832031 3.84375 -1.578125 4.34375 -1.390625 C 4.84375 -1.210938 5.351562 -1.125 5.875 -1.125 C 6.34375 -1.125 6.769531 -1.191406 7.15625 -1.328125 C 7.550781 -1.460938 7.894531 -1.648438 8.1875 -1.890625 C 8.488281 -2.140625 8.722656 -2.4375 8.890625 -2.78125 C 9.066406 -3.132812 9.15625 -3.535156 9.15625 -3.984375 C 9.15625 -4.492188 9.046875 -4.925781 8.828125 -5.28125 C 8.609375 -5.644531 8.3125 -5.953125 7.9375 -6.203125 C 7.5625 -6.460938 7.140625 -6.679688 6.671875 -6.859375 C 6.210938 -7.046875 5.742188 -7.226562 5.265625 -7.40625 C 4.691406 -7.601562 4.117188 -7.8125 3.546875 -8.03125 C 2.984375 -8.257812 2.476562 -8.539062 2.03125 -8.875 C 1.582031 -9.207031 1.21875 -9.613281 0.9375 -10.09375 C 0.65625 -10.582031 0.515625 -11.191406 0.515625 -11.921875 C 0.515625 -12.554688 0.648438 -13.125 0.921875 -13.625 C 1.191406 -14.125 1.546875 -14.546875 1.984375 -14.890625 C 2.429688 -15.242188 2.945312 -15.507812 3.53125 -15.6875 C 4.113281 -15.863281 4.71875 -15.953125 5.34375 -15.953125 C 6.101562 -15.953125 6.804688 -15.796875 7.453125 -15.484375 C 8.097656 -15.171875 8.597656 -14.695312 8.953125 -14.0625 L 8.953125 -15.6875 L 10.40625 -15.6875 L 10.40625 -11.203125 L 8.953125 -11.203125 C 8.953125 -11.679688 8.851562 -12.125 8.65625 -12.53125 C 8.46875 -12.945312 8.203125 -13.300781 7.859375 -13.59375 C 7.523438 -13.882812 7.140625 -14.113281 6.703125 -14.28125 C 6.273438 -14.457031 5.820312 -14.546875 5.34375 -14.546875 C 4.914062 -14.546875 4.507812 -14.5 4.125 -14.40625 C 3.738281 -14.3125 3.398438 -14.15625 3.109375 -13.9375 C 2.828125 -13.726562 2.597656 -13.453125 2.421875 -13.109375 C 2.253906 -12.773438 2.171875 -12.378906 2.171875 -11.921875 C 2.171875 -11.503906 2.269531 -11.148438 2.46875 -10.859375 C 2.675781 -10.578125 2.953125 -10.328125 3.296875 -10.109375 C 3.640625 -9.890625 4.035156 -9.6875 4.484375 -9.5 C 4.941406 -9.320312 5.40625 -9.140625 5.875 -8.953125 C 6.46875 -8.742188 7.054688 -8.507812 7.640625 -8.25 C 8.234375 -8 8.757812 -7.691406 9.21875 -7.328125 C 9.6875 -6.972656 10.066406 -6.53125 10.359375 -6 C 10.660156 -5.476562 10.8125 -4.84375 10.8125 -4.09375 Z M 10.8125 -4.09375 "/></g></g></g><g fill="#ffffff" fill-opacity="1"><g transform="translate(123.500737, 250.623053)"><g><path d="M 11.625 -7.828125 C 11.625 -6.773438 11.515625 -5.757812 11.296875 -4.78125 C 11.085938 -3.800781 10.742188 -2.9375 10.265625 -2.1875 C 9.796875 -1.445312 9.175781 -0.847656 8.40625 -0.390625 C 7.644531 0.0546875 6.710938 0.28125 5.609375 0.28125 C 4.515625 0.28125 3.582031 0.0546875 2.8125 -0.390625 C 2.050781 -0.847656 1.429688 -1.445312 0.953125 -2.1875 C 0.472656 -2.9375 0.128906 -3.800781 -0.078125 -4.78125 C -0.285156 -5.757812 -0.390625 -6.773438 -0.390625 -7.828125 C -0.390625 -8.878906 -0.285156 -9.894531 -0.078125 -10.875 C 0.128906 -11.851562 0.476562 -12.71875 0.96875 -13.46875 C 1.457031 -14.21875 2.082031 -14.816406 2.84375 -15.265625 C 3.601562 -15.722656 4.523438 -15.953125 5.609375 -15.953125 C 6.691406 -15.953125 7.613281 -15.722656 8.375 -15.265625 C 9.144531 -14.816406 9.765625 -14.21875 10.234375 -13.46875 C 10.710938 -12.71875 11.0625 -11.851562 11.28125 -10.875 C 11.507812 -9.894531 11.625 -8.878906 11.625 -7.828125 Z M 9.96875 -7.828125 C 9.96875 -8.859375 9.867188 -9.789062 9.671875 -10.625 C 9.472656 -11.457031 9.1875 -12.164062 8.8125 -12.75 C 8.445312 -13.332031 7.992188 -13.773438 7.453125 -14.078125 C 6.921875 -14.390625 6.304688 -14.546875 5.609375 -14.546875 C 4.753906 -14.546875 4.046875 -14.34375 3.484375 -13.9375 C 2.929688 -13.539062 2.484375 -13.019531 2.140625 -12.375 C 1.804688 -11.726562 1.570312 -11.003906 1.4375 -10.203125 C 1.3125 -9.410156 1.25 -8.617188 1.25 -7.828125 C 1.25 -7.046875 1.3125 -6.253906 1.4375 -5.453125 C 1.570312 -4.648438 1.804688 -3.929688 2.140625 -3.296875 C 2.484375 -2.660156 2.929688 -2.140625 3.484375 -1.734375 C 4.046875 -1.328125 4.753906 -1.125 5.609375 -1.125 C 6.460938 -1.125 7.171875 -1.328125 7.734375 -1.734375 C 8.296875 -2.140625 8.742188 -2.660156 9.078125 -3.296875 C 9.410156 -3.929688 9.640625 -4.648438 9.765625 -5.453125 C 9.898438 -6.253906 9.96875 -7.046875 9.96875 -7.828125 Z M 9.96875 -7.828125 "/></g></g></g><g fill="#ffffff" fill-opacity="1"><g transform="translate(146.63921, 250.623053)"><g><path d="M 10.609375 -14.28125 L 2.234375 -14.28125 L 2.234375 -8.671875 L 8.421875 -8.671875 L 8.421875 -7.265625 L 2.234375 -7.265625 L 2.234375 0 L 0.59375 0 L 0.59375 -15.6875 L 10.609375 -15.6875 Z M 10.609375 -14.28125 "/></g></g></g><g fill="#ffffff" fill-opacity="1"><g transform="translate(169.777677, 250.623053)"><g><path d="M 11.203125 -10.390625 L 9.796875 -10.390625 L 9.796875 -14.28125 L 6.4375 -14.28125 L 6.4375 -1.40625 L 8.953125 -1.40625 L 8.953125 0 L 2.234375 0 L 2.234375 -1.40625 L 4.78125 -1.40625 L 4.78125 -14.28125 L 1.40625 -14.28125 L 1.40625 -10.390625 L 0 -10.390625 L 0 -15.6875 L 11.203125 -15.6875 Z M 11.203125 -10.390625 "/></g></g></g><g fill="#ffffff" fill-opacity="1"><g transform="translate(192.916145, 250.623053)"><g><path d="M 11.96875 -15.6875 L 9.140625 0 L 7.1875 0 L 5.59375 -7.65625 L 3.96875 0 L 2.046875 0 L -0.75 -15.6875 L 0.984375 -15.6875 L 3.203125 -2.78125 L 4.78125 -11.203125 L 6.390625 -11.203125 L 7.984375 -2.78125 L 10.203125 -15.6875 Z M 11.96875 -15.6875 "/></g></g></g><g fill="#ffffff" fill-opacity="1"><g transform="translate(216.054612, 250.623053)"><g><path d="M 11.96875 0 L 10.203125 0 L 8.71875 -4.484375 L 2.515625 -4.484375 L 1.0625 0 L -0.703125 0 L 4.515625 -15.6875 L 6.75 -15.6875 Z M 8.25 -5.9375 L 5.609375 -14.03125 L 2.984375 -5.9375 Z M 8.25 -5.9375 "/></g></g></g><g fill="#ffffff" fill-opacity="1"><g transform="translate(239.193079, 250.623053)"><g><path d="M 11.34375 0 L 9.265625 0 L 4.671875 -6.71875 L 2.234375 -6.71875 L 2.234375 0 L 0.59375 0 L 0.59375 -15.6875 L 5.765625 -15.6875 C 7.484375 -15.6875 8.816406 -15.3125 9.765625 -14.5625 C 10.710938 -13.8125 11.1875 -12.691406 11.1875 -11.203125 C 11.1875 -10.546875 11.066406 -9.953125 10.828125 -9.421875 C 10.597656 -8.898438 10.28125 -8.453125 9.875 -8.078125 C 9.476562 -7.710938 9 -7.414062 8.4375 -7.1875 C 7.882812 -6.96875 7.28125 -6.835938 6.625 -6.796875 Z M 9.46875 -11.203125 C 9.46875 -12.273438 9.132812 -13.054688 8.46875 -13.546875 C 7.8125 -14.035156 6.910156 -14.28125 5.765625 -14.28125 L 2.234375 -14.28125 L 2.234375 -8.125 L 5.765625 -8.125 C 6.910156 -8.125 7.8125 -8.363281 8.46875 -8.84375 C 9.132812 -9.332031 9.46875 -10.117188 9.46875 -11.203125 Z M 9.46875 -11.203125 "/></g></g></g><g fill="#ffffff" fill-opacity="1"><g transform="translate(262.331547, 250.623053)"><g><path d="M 10.609375 0 L 0.59375 0 L 0.59375 -15.6875 L 10.609375 -15.6875 L 10.609375 -14.28125 L 2.234375 -14.28125 L 2.234375 -8.671875 L 8.421875 -8.671875 L 8.421875 -7.265625 L 2.234375 -7.265625 L 2.234375 -1.40625 L 10.609375 -1.40625 Z M 10.609375 0 "/></g></g></g><g fill="#ffffff" fill-opacity="1"><g transform="translate(285.470014, 250.623053)"><g><path d="M 11.203125 -5.046875 L 0 -5.046875 L 0 -6.453125 L 11.203125 -6.453125 Z M 11.203125 -5.046875 "/></g></g></g></svg>